<?xml version="1.0" encoding="UTF-8"?>
<svg width="138px" height="46px" viewBox="0 0 138 46" version="1.1" xmlns="http://www.w3.org/2000/svg" xmlns:xlink="http://www.w3.org/1999/xlink">
    <title>Download_on_the_App_Store_Badge_NO_RGB_blk_100317</title>
    <g id="📚-Sider" stroke="none" stroke-width="1" fill="none" fill-rule="evenodd">
        <g id="Forside-Mobil" transform="translate(-52.000000, -5024.000000)" fill-rule="nonzero">
            <g id="Download_on_the_App_Store_Badge_NO_RGB_blk_100317" transform="translate(52.000000, 5024.000000)">
                <g id="Group">
                    <g id="Path">
                        <path d="M127.010541,1.1570568e-16 L10.9956634,1.1570568e-16 C10.5727746,1.1570568e-16 10.15496,1.1570568e-16 9.73318975,0.00244949204 C9.38012889,0.00474948456 9.0298819,0.0114309628 8.67343055,0.0170544446 C7.89905347,0.0261414892 7.12649748,0.0940768932 6.36247622,0.220270284 C5.59952811,0.349210887 4.8604799,0.592300676 4.17032748,0.941317941 C3.48101915,1.29328776 2.85117841,1.75063647 2.30365439,2.29677254 C1.75325597,2.84137281 1.29445638,3.47085705 0.944897662,4.16101998 C0.594374179,4.84980923 0.351320064,5.58791038 0.224129933,6.34983086 C0.0957305721,7.11078903 0.0266377078,7.88052251 0.0174714098,8.65212338 C0.00676945051,9.00471223 0.00563928671,9.35847408 0,9.71110894 L0,36.2924215 C0.00563928671,36.6494954 0.00676945051,36.9954143 0.0174714098,37.3526031 C0.0266405187,38.1241657 0.0957333841,38.8938607 0.224129933,39.6547806 C0.350968854,40.4171465 0.59403734,41.1556714 0.944897662,41.8447185 C1.29429766,42.5326496 1.75316177,43.1595854 2.30365439,43.7011575 C2.84910237,44.2497218 3.47935022,44.7073817 4.17032748,45.0566581 C4.86047466,45.4066095 5.59944319,45.6511462 6.36247622,45.7820757 C7.12662736,45.9072582 7.8991039,45.9752213 8.67343055,45.985395 C9.0298819,45.993215 9.38012889,45.9977 9.73318975,45.9977 C10.1549484,46 10.5727977,46 10.9956634,46 L127.010541,46 C127.425011,46 127.84617,46 128.26064,45.9977 C128.612029,45.9977 128.972413,45.993215 129.323802,45.985395 C130.096664,45.9757623 130.867687,45.907795 131.630258,45.7820757 C132.395753,45.6502245 133.137371,45.4057525 133.830849,45.0566581 C134.521203,44.7071795 135.150869,44.2495321 135.69585,43.7011575 C136.244922,43.1574643 136.704766,42.5309871 137.058504,41.8447185 C137.406732,41.1551701 137.647487,40.4167043 137.772468,39.6547806 C137.90107,38.8937564 137.972615,38.1242325 137.986507,37.3526031 C137.991005,36.9954143 137.991005,36.6494954 137.991005,36.2924215 C138,35.8746279 138,35.4591343 138,35.0345556 L138,10.9666634 C138,10.5455232 138,10.1277526 137.991005,9.71110894 C137.991005,9.35847408 137.991005,9.00471223 137.986507,8.65207738 C137.972618,7.8804097 137.901073,7.11084741 137.772468,6.34978486 C137.647138,5.58830517 137.406398,4.85026251 137.058504,4.16097398 C136.346644,2.77761596 135.21784,1.65157334 133.830849,0.941214441 C133.137369,0.59305006 132.395672,0.350024834 131.630258,0.220166784 C130.867819,0.093417397 130.096716,0.0254583469 129.323802,0.0168934451 C128.972413,0.0112814633 128.612029,0.00454248524 128.26064,0.00229999253 C127.84617,1.1570568e-16 127.425011,1.1570568e-16 127.010541,1.1570568e-16 L127.010541,1.1570568e-16 Z" fill="#A6A6A6"></path>
                        <path d="M9.73881751,44.9937533 C9.38745189,44.9937533 9.04457403,44.9892683 8.69596463,44.9814483 C7.973792,44.9720652 7.25330728,44.9093723 6.54041936,44.7938839 C5.87568734,44.6797217 5.2317407,44.4673591 4.62981979,44.163801 C4.03341818,43.862758 3.48945196,43.468022 3.01875977,42.9947148 C2.54125441,42.5269828 2.14370938,41.9844936 1.84187869,41.388745 C1.53672207,40.7891244 1.32553554,40.1464035 1.21567568,39.4829712 C1.09703657,38.7701056 1.0328479,38.0492861 1.02366316,37.3267282 C1.01635169,37.084194 1.0067799,36.2766666 1.0067799,36.2766666 L1.0067799,9.71110894 C1.0067799,9.71110894 1.01697444,8.91599002 1.02372082,8.68239128 C1.03251514,7.96097798 1.09633056,7.24127703 1.21461471,6.52951778 C1.32467736,5.86426803 1.53602738,5.21969373 1.8413482,4.61810899 C2.14206959,4.02277185 2.53740753,3.47987753 3.01203645,3.01047172 C3.48613189,2.53660589 4.03183815,2.13983728 4.62925471,1.83463504 C5.22979223,1.53205216 5.8725219,1.32118763 6.53591024,1.20910607 C7.25113939,1.09245751 7.97412536,1.02939165 8.69880157,1.02043768 L9.73938259,1.00639623 L128.25499,1.00639623 L129.308002,1.02100118 C130.026087,1.02951023 130.742505,1.09201346 131.451162,1.20797907 C132.121266,1.32146653 132.770694,1.53380238 133.378091,1.83800453 C134.574933,2.45307548 135.54878,3.42617576 136.163138,4.62091498 C136.463585,5.21834674 136.671675,5.85766323 136.780346,6.51716682 C136.900038,7.23476608 136.967027,7.96012272 136.980777,8.68745127 C136.984121,9.01313021 136.984121,9.36295907 136.984121,9.71110894 C136.993232,10.1423575 136.993232,10.5528257 136.993232,10.9666634 L136.993232,35.0345556 C136.993232,35.4523493 136.993232,35.860023 136.984121,36.2710316 C136.984121,36.6450104 136.984121,36.9875943 136.979624,37.3401831 C136.966171,38.0545328 136.9003,38.7669424 136.782537,39.4717012 C136.674929,40.1399194 136.464892,40.787657 136.159793,41.392195 C135.855829,41.9814774 135.460567,42.5192674 134.988575,42.9857448 C134.517459,43.4615956 133.972533,43.8586411 133.374747,44.161616 C132.769032,44.4675077 132.12056,44.6806556 131.451162,44.7938839 C130.738328,44.9099887 130.017774,44.9726855 129.295548,44.9814483 C128.957767,44.9892683 128.604072,44.9937533 128.26064,44.9937533 L127.010541,44.9960533 L9.73881751,44.9937533 Z" fill="#000000"></path>
                    </g>
                    <g id="_Group_" transform="translate(11.499494, 10.028427)" fill="#FFFFFF">
                        <g id="_Group_3">
                            <path d="M17.0646806,13.3174282 C17.0898867,11.366493 18.1155518,9.56442244 19.7823324,8.54257474 C18.726059,7.03825631 17.0202952,6.11867972 15.1796135,6.0612508 C13.2430663,5.85855246 11.3656682,7.21680155 10.3788391,7.21680155 C9.37291263,7.21680155 7.85353426,6.08137574 6.21741458,6.11494413 C4.06470771,6.18429858 2.10645203,7.37521983 1.05911635,9.25198443 C-1.17122731,13.1026549 0.4924084,18.761844 2.6288908,21.8744354 C3.69781818,23.398583 4.9470874,25.1010949 6.58173095,25.0407201 C8.18132789,24.9745608 8.77874631,24.0235714 10.7095966,24.0235714 C12.6225257,24.0235714 13.1830292,25.0407201 14.8508396,25.0023332 C16.5672817,24.9745493 17.6487216,23.4714122 18.680146,21.9328322 C19.4481685,20.8468214 20.0391606,19.646543 20.431231,18.3764573 C18.3926191,17.516641 17.06706,15.5246785 17.0646806,13.3174282 L17.0646806,13.3174282 Z" id="_Path_"></path>
                            <path d="M13.9144874,4.01419995 C14.8503629,2.89386429 15.3114332,1.4538626 15.1997835,0 C13.7699738,0.149753074 12.4492303,0.831193925 11.5007112,1.9085453 C10.5640923,2.97149722 10.0896033,4.3621229 10.1817524,5.77413123 C11.6307341,5.78900847 13.0065116,5.14034899 13.9144874,4.01419995 L13.9144874,4.01419995 Z" id="_Path_2"></path>
                        </g>
                        <g id="Group" transform="translate(28.203010, 10.523351)">
                            <path d="M9.08167339,10.6588669 L3.62298224,10.6588669 L2.31208449,14.5187718 L0,14.5187718 L5.17038406,0.238118226 L7.57255875,0.238118226 L12.7429428,14.5187718 L10.3914294,14.5187718 L9.08167339,10.6588669 Z M4.18832938,8.87771815 L8.51524221,8.87771815 L6.38221949,2.61337801 L6.32252839,2.61337801 L4.18832938,8.87771815 Z" id="Shape"></path>
                            <path d="M23.9092149,9.31346323 C23.9092149,12.5489547 22.1726144,14.6276995 19.5519491,14.6276995 C18.19735,14.6983605 16.9213918,13.9908438 16.2668281,12.8061054 L16.2172393,12.8061054 L16.2172393,17.9631256 L14.0740797,17.9631256 L14.0740797,4.10702765 L16.1485761,4.10702765 L16.1485761,5.83876102 L16.1879934,5.83876102 C16.8716368,4.66144996 18.1489709,3.95423781 19.5125317,3.99808851 C22.1624314,3.99810001 23.9092149,6.08695322 23.9092149,9.31346323 Z M21.7063642,9.31346323 C21.7063642,7.20552008 20.6139455,5.81967109 18.947173,5.81967109 C17.309681,5.81967109 16.2082557,7.23470699 16.2082557,9.31346323 C16.2082557,11.4113094 17.309681,12.8162368 18.947173,12.8162368 C20.6139571,12.8162368 21.7063642,11.4405078 21.7063642,9.31346323 Z" id="Shape"></path>
                            <path d="M35.400951,9.31346323 C35.400951,12.5489547 33.6643505,14.6276995 31.0436852,14.6276995 C29.6890862,14.6983605 28.4131279,13.9908438 27.7585643,12.8061054 L27.7089755,12.8061054 L27.7089755,17.9631256 L25.5658159,17.9631256 L25.5658159,4.10702765 L27.6402661,4.10702765 L27.6402661,5.83876102 L27.6796835,5.83876102 C28.3633318,4.66145067 29.6406708,3.95424268 31.0042333,3.99810001 C33.6542137,3.99810001 35.400951,6.08695322 35.400951,9.31346323 Z M33.1981118,9.31346323 C33.1981118,7.20552008 32.1056817,5.81967109 30.4389092,5.81967109 C28.8014172,5.81967109 27.6999918,7.23470699 27.6999918,9.31346323 C27.6999918,11.4113094 28.8014172,12.8162368 30.4389092,12.8162368 C32.1056932,12.8162368 33.1981118,11.4405078 33.1981118,9.31346323 L33.1981118,9.31346323 Z" id="Shape"></path>
                            <path d="M42.9960438,10.5398192 C43.1548434,11.9559821 44.5344505,12.8858116 46.4196906,12.8858116 C48.226119,12.8858116 49.5257497,11.9559361 49.5257497,10.6790263 C49.5257497,9.5705794 48.7419119,8.90688205 46.8859408,8.45203553 L45.0299696,8.00618198 C42.4002976,7.37278704 41.1794901,6.14641952 41.1794901,4.15638549 C41.1794901,1.6924265 43.3327865,0 46.3904101,0 C49.4164813,0 51.4909662,1.6924265 51.5607941,4.15638549 L49.3973377,4.15638549 C49.2678302,2.73124112 48.08644,1.87099792 46.3599764,1.87099792 C44.6335128,1.87099792 43.4521341,2.74136109 43.4521341,4.00815097 C43.4521341,5.01776719 44.2066914,5.61185526 46.0525257,6.06664428 L47.6303266,6.45297403 C50.5685795,7.14589278 51.7893871,8.32286795 51.7893871,10.4116982 C51.7893871,13.0834155 49.6552342,14.756752 46.2608679,14.756752 C43.0849808,14.756752 40.9407026,13.1227224 40.8021768,10.5397157 L42.9960438,10.5398192 Z" id="Path"></path>
                            <path d="M56.4147093,1.64306866 L56.4147093,4.10702765 L58.4001995,4.10702765 L58.4001995,5.79945415 L56.4147093,5.79945415 L56.4147093,11.539327 C56.4147093,12.4310226 56.8122617,12.8465507 57.6850595,12.8465507 C57.9207695,12.8424521 58.1560981,12.8259458 58.3900626,12.7971009 L58.3900626,14.4794189 C57.9976517,14.5525352 57.598799,14.5856493 57.1996657,14.5782496 C55.0857981,14.5782496 54.2614128,13.7865002 54.2614128,11.7672678 L54.2614128,5.79945415 L52.743303,5.79945415 L52.743303,4.10702765 L54.2613897,4.10702765 L54.2613897,1.64306866 L56.4147093,1.64306866 Z" id="Path"></path>
                            <path d="M59.550095,9.31346323 C59.550095,6.03754938 61.4849009,3.97901007 64.502,3.97901007 C67.5292244,3.97901007 69.4550236,6.03750338 69.4550236,9.31346323 C69.4550236,12.5983701 67.5393613,14.6479164 64.502,14.6479164 C61.4657111,14.6479164 59.550095,12.5983586 59.550095,9.31346323 Z M67.2713164,9.31346323 C67.2713164,7.06625553 66.2385889,5.73994185 64.5019884,5.73994185 C62.765388,5.73994185 61.7337906,7.076364 61.7337906,9.31346323 C61.7337906,11.5696524 62.765388,12.8858691 64.5019884,12.8858691 C66.2385889,12.8858691 67.2713164,11.5696524 67.2713164,9.31346323 L67.2713164,9.31346323 Z" id="Shape"></path>
                            <path d="M71.221977,4.10702765 L73.2660397,4.10702765 L73.2660397,5.87917189 L73.3156285,5.87917189 C73.6006789,4.73836227 74.6489133,3.95321744 75.8270485,3.99807701 C76.0740286,3.99721707 76.3203272,4.02396428 76.5613321,4.07781775 L76.5613321,6.07683325 C76.2495348,5.98182438 75.9242767,5.93820269 75.5983864,5.94768867 C74.968318,5.92219951 74.3585516,6.17259888 73.9291938,6.63313931 C73.499836,7.09367975 73.2937824,7.71835027 73.3651366,8.34313088 L73.3651366,14.5187488 L71.221977,14.5187488 L71.221977,4.10702765 Z" id="Path"></path>
                            <path d="M86.4425733,11.4607133 C86.1542662,13.3507896 84.3084204,14.6479049 81.9467817,14.6479049 C78.9094203,14.6479049 77.0241687,12.618564 77.0241687,9.36286707 C77.0241687,6.09706168 78.9195572,3.97899857 81.8566915,3.97899857 C84.7453902,3.97899857 86.5619555,5.95779714 86.5619555,9.11467488 L86.5619555,9.8469005 L79.1876021,9.8469005 L79.1876021,9.97604508 C79.1187514,10.7511789 79.3871586,11.5184539 79.9245495,12.0827001 C80.4619405,12.6469464 81.21652,12.9537802 81.9963474,12.925153 C83.0363775,13.0223272 84.0169224,12.4267879 84.4075404,11.4607018 L86.4425733,11.4607133 Z M79.1977187,8.35326235 L84.4176657,8.35326235 C84.4565589,7.65674123 84.2023078,6.97562788 83.7161685,6.47400924 C83.2300292,5.9723906 82.5560793,5.69574796 81.8566915,5.71073194 C81.1517712,5.70653702 80.4743751,5.98330938 79.9750674,6.47953117 C79.4757596,6.97575297 79.1959126,7.65030749 79.1977187,8.35326235 L79.1977187,8.35326235 Z" id="Shape"></path>
                        </g>
                    </g>
                </g>
                <g id="Group" transform="translate(41.000000, 10.000000)" fill="#FFFFFF">
                    <polygon id="Path" points="4.27426192 6.89248696 0 6.89248696 0 0.323665881 1.06436206 0.323665881 1.06436206 5.95446141 4.27426192 5.95446141"></polygon>
                    <path d="M5.34983311,5.49056233 C5.34983311,4.5982243 6.04296163,4.08379371 7.27330151,4.01068265 L8.67413272,3.93327807 L8.67413272,3.50538957 C8.67413272,2.98181046 8.31299429,2.6861626 7.61538671,2.6861626 C7.04563902,2.6861626 6.65085023,2.88667031 6.53756451,3.23715422 L5.54947278,3.23715422 C5.65377741,2.38567075 6.48933998,1.83952311 7.66248573,1.83952311 C8.95901231,1.83952311 9.69027025,2.45823136 9.69027025,3.50538957 L9.69027025,6.89249797 L8.70778308,6.89249797 L8.70778308,6.19583469 L8.6270337,6.19583469 C8.29334225,6.70459158 7.69993025,7.00193143 7.07367333,6.97417407 C6.63465226,7.01794802 6.19680138,6.88165479 5.86836543,6.59898855 C5.53992948,6.31632232 5.35156281,5.91366554 5.34983311,5.49056233 L5.34983311,5.49056233 Z M8.67413272,5.06696736 L8.67413272,4.6525209 L7.41121057,4.72992549 C6.69901733,4.77561302 6.37600833,5.00783778 6.37600833,5.44486379 C6.37600833,5.8910273 6.77976672,6.15066458 7.33498618,6.15066458 C7.66367161,6.18257033 7.99179233,6.08523988 8.24423087,5.88095533 C8.49666941,5.67667078 8.65180884,5.38292552 8.67413272,5.06696736 L8.67413272,5.06696736 Z" id="Shape"></path>
                    <path d="M13.1783196,1.8395121 C14.3413818,1.8395121 15.101788,2.35824723 15.2016136,3.23231024 L14.2224915,3.23231024 C14.1283164,2.86838429 13.7570484,2.63617053 13.1783196,2.63617053 C12.6085719,2.63617053 12.1756997,2.89526837 12.1756997,3.28230231 C12.1756997,3.57844558 12.437024,3.76502685 12.9978021,3.88811897 L13.8568625,4.07894973 C14.8404752,4.29773245 15.3014277,4.7030414 15.3014277,5.43143275 C15.3014277,6.36462534 14.3941313,6.98817757 13.1592549,6.98817757 C11.9289036,6.98817757 11.1269914,6.45546096 11.0361469,5.57710442 L12.057889,5.57710442 C12.2390979,6.00737773 12.7038464,6.26299006 13.1828102,6.19581267 C13.8187331,6.19581267 14.2707275,5.92278839 14.2707275,5.5265619 C14.2707275,5.23091403 14.0284679,5.03954383 13.5103097,4.92128468 L12.6085719,4.72077697 C11.6249593,4.49768971 11.1696113,4.07464519 11.1696113,3.33711634 C11.1695998,2.45823136 12.0096529,1.8395121 13.1783196,1.8395121 Z" id="Path"></path>
                    <path d="M18.0200897,0.700978832 L18.0200897,1.95777125 L19.1405319,1.95777125 L19.1405319,2.7818422 L18.0200897,2.7818422 L18.0200897,5.33090918 C18.0200897,5.85018374 18.2432846,6.07756453 18.7513477,6.07756453 C18.881419,6.0771655 19.0113598,6.06962664 19.1405319,6.05498498 L19.1405319,6.86990742 C18.9572533,6.9013908 18.7715472,6.9181132 18.5853584,6.91989948 C17.450342,6.91989948 16.9983476,6.53715907 16.9983476,5.58139795 L16.9983476,2.78179816 L16.1773707,2.78179816 L16.1773707,1.95772721 L16.9983476,1.95772721 L16.9983476,0.700978832 L18.0200897,0.700978832 Z" id="Path"></path>
                    <path d="M23.2925385,1.9351917 L24.2750257,1.9351917 L24.2750257,2.72270161 L24.3512386,2.72270161 C24.6164618,2.14288605 25.2362119,1.78820718 25.8945038,1.83950109 C26.404217,1.80276586 26.9036998,1.99020378 27.2519235,2.34889182 C27.6001472,2.70757985 27.7593231,3.19859368 27.6845078,3.68329571 L27.6845078,6.89243192 L26.6638912,6.89243192 L26.6638912,3.92897353 C26.6638912,3.13232611 26.3027528,2.73614366 25.5479396,2.73614366 C25.2022089,2.72070801 24.8666865,2.85077265 24.6293359,3.09223864 C24.3919854,3.33370463 24.2764785,3.66248973 24.3130977,3.99239663 L24.3130977,6.89248696 L23.2924811,6.89248696 L23.2925385,1.9351917 Z" id="Path"></path>
                    <path d="M33.6366709,5.55398543 C33.3504786,6.489071 32.406479,7.09324022 31.395798,6.98816656 C30.706209,7.00561662 30.0434756,6.73162263 29.5834378,6.23888218 C29.1233999,5.74614173 28.9125658,5.08446901 29.0068751,4.42942263 C28.9150743,3.77255756 29.1251202,3.10982773 29.5825958,2.61292709 C30.0400714,2.11602645 30.6999614,1.83384988 31.3913075,1.83950109 C32.8302681,1.83950109 33.6989183,2.78187522 33.6989183,4.33855399 L33.6989183,4.67994443 L30.0465334,4.67994443 L30.0465334,4.73476947 C30.0142176,5.1026258 30.1452802,5.46648307 30.407489,5.73685742 C30.6696977,6.00723177 31.0387228,6.15903577 31.4238094,6.15493609 C31.9231346,6.21239744 32.4091936,5.9749746 32.6541607,5.5539524 L33.6366709,5.55398543 Z M30.0465334,3.95638605 L32.6586398,3.95638605 C32.6846561,3.61995016 32.5612472,3.28862708 32.318825,3.04406561 C32.0764029,2.79950413 31.7375128,2.66444861 31.3856684,2.67218111 C31.0290534,2.6678804 30.6857402,2.80181634 30.4336082,3.04360604 C30.1814763,3.28539573 30.041897,3.61454448 30.0465334,3.95638605 L30.0465334,3.95638605 Z" id="Shape"></path>
                    <path d="M34.8126304,4.41169807 C34.8126304,2.84527631 35.6526835,1.85295414 36.9592937,1.85295414 C37.6190667,1.82381335 38.2370054,2.16269674 38.5451789,2.72266859 L38.6214492,2.72266859 L38.6214492,0 L39.6420543,0 L39.6420543,6.89247596 L38.6640577,6.89247596 L38.6640577,6.10925957 L38.5833083,6.10925957 C38.2518398,6.66458543 37.6262881,6.99774055 36.9592937,6.97417407 C35.6437024,6.97422911 34.8126304,5.98188493 34.8126304,4.41169807 Z M35.8669318,4.41169807 C35.8669318,5.46314981 36.3839759,6.09585055 37.2486983,6.09585055 C38.1089072,6.09585055 38.6405484,5.45402331 38.6405484,4.41600261 C38.6405484,3.38282589 38.1033256,2.73185013 37.2486983,2.73185013 C36.389569,2.73185013 35.8668973,3.3688444 35.8668973,4.41169807 L35.8669318,4.41169807 Z" id="Shape"></path>
                    <path d="M44.4872009,2.7818422 L43.6370642,2.7818422 L43.6370642,1.95777125 L44.4872009,1.95777125 L44.4872009,1.47505771 C44.4872009,0.464427513 45.0614392,0.0456755726 46.1392614,0.0456755726 C46.3238898,0.0448543009 46.5082147,0.0601468545 46.6899444,0.0913970799 L46.6899444,0.874118061 C46.5409696,0.850050821 46.3901511,0.838005061 46.2390755,0.838107479 C45.7500772,0.838107479 45.4932434,1.05205723 45.4932434,1.5390753 L45.4932434,1.95782629 L46.6473244,1.95782629 L46.6473244,2.78189724 L45.5078175,2.78189724 L45.5078175,6.89255302 L44.4872009,6.89255302 L44.4872009,2.7818422 Z" id="Path"></path>
                    <path d="M47.9472045,1.9351917 L48.9296917,1.9351917 L48.9296917,2.6952891 L49.005962,2.6952891 C49.2316078,2.15396151 49.7955462,1.81376424 50.4023027,1.85294314 C50.5551702,1.85097307 50.7078197,1.86466903 50.8576506,1.8937977 L50.8576506,2.85929082 C50.6703489,2.8209262 50.4794304,2.80111229 50.287903,2.80016125 C49.9475086,2.77085909 49.6100337,2.88071235 49.3586423,3.10264982 C49.107251,3.32458729 48.9653226,3.63796882 48.9678326,3.96556759 L48.9678326,6.892531 L47.9472045,6.892531 L47.9472045,1.9351917 Z" id="Path"></path>
                    <path d="M51.6595743,5.49056233 C51.6595743,4.5982243 52.3527029,4.08379371 53.5830427,4.01068265 L54.983874,3.93327807 L54.983874,3.50538957 C54.983874,2.98181046 54.6227355,2.6861626 53.9251279,2.6861626 C53.3553803,2.6861626 52.9605915,2.88667031 52.8473057,3.23715422 L51.8592025,3.23715422 C51.9635072,2.38567075 52.7990697,1.83952311 53.9722155,1.83952311 C55.2687421,1.83952311 56,2.45823136 56,3.50538957 L56,6.89249797 L55.0175128,6.89249797 L55.0175128,6.19583469 L54.9367634,6.19583469 C54.603072,6.70459158 54.00966,7.00193143 53.3834031,6.97417407 C52.9443839,7.01794469 52.5065361,6.88164996 52.1781028,6.5989841 C51.8496695,6.31631824 51.6613044,5.91366341 51.6595743,5.49056233 L51.6595743,5.49056233 Z M54.983874,5.06696736 L54.983874,4.6525209 L53.7209977,4.72992549 C53.0088045,4.77561302 52.6857955,5.00783778 52.6857955,5.44486379 C52.6857955,5.8910273 53.0895539,6.15066458 53.6447734,6.15066458 C53.9734513,6.18255763 54.3015599,6.08522138 54.5539882,5.88093816 C54.8064164,5.67665493 54.9615494,5.38291706 54.983874,5.06696736 L54.983874,5.06696736 Z" id="Shape"></path>
                </g>
            </g>
        </g>
    </g>
</svg>