<?xml version="1.0" encoding="UTF-8"?>
<svg width="156px" height="46px" viewBox="0 0 156 46" version="1.1" xmlns="http://www.w3.org/2000/svg" xmlns:xlink="http://www.w3.org/1999/xlink">
    <title>google-play-badge</title>
    <defs>
        <polygon id="path-1" points="0 0 156 0 156 46 0 46"></polygon>
    </defs>
    <g id="📚-Sider" stroke="none" stroke-width="1" fill="none" fill-rule="evenodd">
        <g id="Forside-Mobil" transform="translate(-206.000000, -5024.000000)">
            <g id="google-play-badge" transform="translate(284.000000, 5047.000000) rotate(-360.000000) translate(-284.000000, -5047.000000) translate(206.000000, 5024.000000)">
                <g id="Group-4" transform="translate(-0.000000, -0.000000)">
                    <mask id="mask-2" fill="white">
                        <use xlink:href="#path-1"></use>
                    </mask>
                    <g id="Clip-2"></g>
                    <path d="M150.221668,45.9997597 L5.76384184,45.9997597 C2.5858315,45.9997597 -0.01449051,43.4124144 -0.01449051,40.2497296 L-0.01449051,5.74978972 C-0.01449051,2.58710496 2.5858315,-0.000240325589 5.76384184,-0.000240325589 L150.221668,-0.000240325589 C153.399678,-0.000240325589 156,2.58710496 156,5.74978972 L156,40.2497296 C156,43.4124144 153.399678,45.9997597 150.221668,45.9997597" id="Fill-1" fill="#0A0B09" mask="url(#mask-2)"></path>
                    <path d="M150.221668,0 L5.76384184,0 C2.5858315,0 -0.01449051,2.58758562 -0.01449051,5.75003004 L-0.01449051,40.24997 C-0.01449051,43.4126547 2.5858315,46 5.76384184,46 L150.221668,46 C153.399678,46 156,43.4126547 156,40.24997 L156,5.75003004 C156,2.58758562 153.399678,0 150.221668,0 M150.221668,0.919966354 C152.898306,0.919966354 155.075505,3.08650154 155.075505,5.75003004 L155.075505,40.24997 C155.075505,42.9134985 152.898306,45.0800336 150.221668,45.0800336 L5.76384184,45.0800336 C3.08720315,45.0800336 0.910004025,42.9134985 0.910004025,40.24997 L0.910004025,5.75003004 C0.910004025,3.08650154 3.08720315,0.919966354 5.76384184,0.919966354 L150.221668,0.919966354" id="Fill-3" fill="#9D9E9A" mask="url(#mask-2)"></path>
                </g>
                <path d="M123.541305,34.5873191 L125.697321,34.5873191 L125.697321,20.2665097 L123.541305,20.2665097 L123.541305,34.5873191 Z M142.960661,25.4250654 L140.489296,31.6338616 L140.415167,31.6338616 L137.850114,25.4250654 L135.52773,25.4250654 L139.374223,34.1025374 L137.181264,38.9300052 L139.42976,38.9300052 L145.35814,25.4250654 L142.960661,25.4250654 Z M130.73374,32.9603679 C130.026739,32.9603679 129.042297,32.6098887 129.042297,31.7439849 C129.042297,30.6384433 130.268201,30.2156658 131.327737,30.2156658 C132.275235,30.2156658 132.721215,30.4184362 133.297827,30.6944625 C133.130252,32.0212081 131.978236,32.9603679 130.73374,32.9603679 L130.73374,32.9603679 Z M130.993795,25.1121717 C129.432741,25.1121717 127.815186,25.7937389 127.146094,27.3036243 L129.060648,28.0965116 C129.469685,27.3036243 130.231257,27.0460316 131.030738,27.0460316 C132.145811,27.0460316 133.279234,27.7091651 133.297827,28.8879625 L133.297827,29.0356713 C132.907141,28.8147066 132.070716,28.4836187 131.049331,28.4836187 C128.986761,28.4836187 126.886281,29.6073546 126.886281,31.7073569 C126.886281,33.6237407 128.577724,34.8575998 130.472719,34.8575998 C131.9227,34.8575998 132.721215,34.2136182 133.22394,33.4575983 L133.297827,33.4575983 L133.297827,34.5631398 L135.378748,34.5631398 L135.378748,29.0725387 C135.378748,26.5303676 133.465402,25.1121717 130.993795,25.1121717 L130.993795,25.1121717 Z M117.669186,27.1686036 L114.602616,27.1686036 L114.602616,22.2585434 L117.669186,22.2585434 C119.281188,22.2585434 120.196088,23.5828951 120.196088,24.7135735 C120.196088,25.8236636 119.281188,27.1686036 117.669186,27.1686036 L117.669186,27.1686036 Z M117.613891,20.2665097 L112.447807,20.2665097 L112.447807,34.5873191 L114.602616,34.5873191 L114.602616,29.1618342 L117.613891,29.1618342 C120.00316,29.1618342 122.352345,27.4455875 122.352345,24.7135735 C122.352345,21.9813201 120.00316,20.2665097 117.613891,20.2665097 L117.613891,20.2665097 Z M89.442979,32.9627619 C87.9536401,32.9627619 86.7069708,31.7267482 86.7069708,30.0289351 C86.7069708,28.3129277 87.9536401,27.0572833 89.442979,27.0572833 C90.9137253,27.0572833 92.0669487,28.3129277 92.0669487,30.0289351 C92.0669487,31.7267482 90.9137253,32.9627619 89.442979,32.9627619 L89.442979,32.9627619 Z M91.9179666,26.2268105 L91.8440791,26.2268105 C91.3599474,25.6551272 90.4295935,25.1373086 89.2570531,25.1373086 C86.7992093,25.1373086 84.5473329,27.2784874 84.5473329,30.0289351 C84.5473329,32.7599915 86.7992093,34.8827366 89.2570531,34.8827366 C90.4295935,34.8827366 91.3599474,34.366115 91.8440791,33.7750405 L91.9179666,33.7750405 L91.9179666,34.4759988 C91.9179666,36.340912 90.9137253,37.3365697 89.2939968,37.3365697 C87.9722327,37.3365697 87.1529515,36.3959736 86.8178019,35.6021287 L84.9380187,36.3777793 C85.4774453,37.6698122 86.9114893,39.2565445 89.2939968,39.2565445 C91.8254865,39.2565445 93.9665319,37.7799355 93.9665319,34.1815389 L93.9665319,25.4329655 L91.9179666,25.4329655 L91.9179666,26.2268105 Z M95.4546634,34.5873191 L97.6143013,34.5873191 L97.6143013,20.2653127 L95.4546634,20.2653127 L95.4546634,34.5873191 Z M100.797498,29.8627926 C100.741961,27.9794458 102.268485,27.0206554 103.365931,27.0206554 C104.223363,27.0206554 104.948957,27.4446299 105.190419,28.0541381 L100.797498,29.8627926 Z M107.499039,28.2384748 C107.088795,27.1489729 105.842126,25.1373086 103.292044,25.1373086 C100.760554,25.1373086 98.6576595,27.112345 98.6576595,30.0107408 C98.6576595,32.7417972 100.741961,34.8827366 103.533506,34.8827366 C105.78659,34.8827366 107.088795,33.5172084 107.629671,32.7233635 L105.954164,31.6156673 C105.394938,32.4277065 104.6324,32.9627619 103.533506,32.9627619 C102.435819,32.9627619 101.653723,32.4645739 101.150998,31.4873498 L107.722151,28.7917244 L107.499039,28.2384748 Z M55.148344,26.6335483 L55.148344,28.7000348 L60.1364701,28.7000348 C59.9872465,29.8627926 59.5968021,30.7116992 59.0015978,31.3015767 C58.275038,32.0221657 57.1391998,32.8150531 55.148344,32.8150531 C52.0759789,32.8150531 49.6748788,30.36122 49.6748788,27.3151154 C49.6748788,24.2702077 52.0759789,21.8163747 55.148344,21.8163747 C56.8052576,21.8163747 58.0149832,22.4613138 58.9081519,23.2917867 L60.3788982,21.8348083 C59.1310215,20.6536169 57.4753152,19.7486911 55.148344,19.7486911 C50.941348,19.7486911 47.4046512,23.1452749 47.4046512,27.3151154 C47.4046512,31.4873498 50.941348,34.8827366 55.148344,34.8827366 C57.418813,34.8827366 59.1310215,34.1437139 60.4713782,32.7599915 C61.8486786,31.3944633 62.277274,29.4756855 62.277274,27.9246236 C62.277274,27.4446299 62.2403303,27.0024611 62.1652355,26.6335483 L55.148344,26.6335483 Z M67.9482553,32.9627619 C66.4601237,32.9627619 65.1753033,31.7449425 65.1753033,30.0107408 C65.1753033,28.2566691 66.4601237,27.0572833 67.9482553,27.0572833 C69.4375941,27.0572833 70.7224145,28.2566691 70.7224145,30.0107408 C70.7224145,31.7449425 69.4375941,32.9627619 67.9482553,32.9627619 L67.9482553,32.9627619 Z M67.9482553,25.1373086 C65.2305982,25.1373086 63.0156654,27.1867979 63.0156654,30.0107408 C63.0156654,32.8150531 65.2305982,34.8827366 67.9482553,34.8827366 C70.6659123,34.8827366 72.8820524,32.8150531 72.8820524,30.0107408 C72.8820524,27.1867979 70.6659123,25.1373086 67.9482553,25.1373086 L67.9482553,25.1373086 Z M78.7099841,32.9627619 C77.2206453,32.9627619 75.9358249,31.7449425 75.9358249,30.0107408 C75.9358249,28.2566691 77.2206453,27.0572833 78.7099841,27.0572833 C80.1995645,27.0572833 81.4831775,28.2566691 81.4831775,30.0107408 C81.4831775,31.7449425 80.1995645,32.9627619 78.7099841,32.9627619 L78.7099841,32.9627619 Z M78.7099841,25.1373086 C75.9925685,25.1373086 73.7773943,27.1867979 73.7773943,30.0107408 C73.7773943,32.8150531 75.9925685,34.8827366 78.7099841,34.8827366 C81.4276412,34.8827366 83.642574,32.8150531 83.642574,30.0107408 C83.642574,27.1867979 81.4276412,25.1373086 78.7099841,25.1373086 L78.7099841,25.1373086 Z" id="Fill-5" fill="#FFFFFE"></path>
                <path d="M23.965192,22.3979058 L11.6093023,35.3601645 C11.6105149,35.3623219 11.6105149,35.3659177 11.611485,35.3680751 C11.9910282,36.7756979 13.2906909,37.8115183 14.8343282,37.8115183 C15.4515407,37.8115183 16.0306775,37.6463528 16.5273577,37.3572532 L16.5668884,37.3342403 L30.4744186,29.4022191 L23.965192,22.3979058" id="Fill-6" fill="#D84037"></path>
                <path d="M36.4762328,20.0950449 L36.4648403,20.0868262 L30.4634139,16.617801 L23.7023256,22.6177086 L30.4876533,29.382199 L36.4565989,25.9479825 C37.5027703,25.3835498 38.2139535,24.2834499 38.2139535,23.0155914 C38.2139535,21.754743 37.5131932,20.6606863 36.4762328,20.0950449" id="Fill-7" fill="#F0B628"></path>
                <path d="M11.7223765,10.8376963 C11.648601,11.1079383 11.6093023,11.3920633 11.6093023,11.6852841 L11.6093023,34.5567504 C11.6093023,34.8499712 11.648601,35.1338569 11.7235819,35.4031414 L24.427907,22.791054 L11.7223765,10.8376963" id="Fill-8" fill="#5373AA"></path>
                <path d="M24.0722452,23.1204188 L30.4744186,16.8269617 L16.5662153,8.89890552 C16.0606655,8.60072906 15.4703719,8.42931937 14.8395273,8.42931937 C13.2939826,8.42931937 11.9902858,9.46326834 11.6105164,10.8660585 C11.6105164,10.8672522 11.6093023,10.8684458 11.6093023,10.8694007 L24.0722452,23.1204188" id="Fill-9" fill="#319F4F"></path>
                <polyline id="Fill-10" fill="#FFFFFE" points="48.372093 7.94764398 49.4539884 7.94764398 49.4539884 14.1231953 52.4837209 14.1231953 52.4837209 15.1727749 48.372093 15.1727749 48.372093 7.94764398"></polyline>
                <path d="M57.7140167,12.2867948 L56.9004179,10.0715275 L56.6258802,9.24422616 L56.5648175,9.24422616 L56.2902798,10.0715275 L55.4769252,12.2867948 L57.7140167,12.2867948 Z M55.9549237,7.94764398 L57.2257597,7.94764398 L59.9813953,15.1727749 L58.7511049,15.1727749 L58.0799042,13.3160129 L55.1107935,13.3160129 L54.439837,15.1727749 L53.2093023,15.1727749 L55.9549237,7.94764398 L55.9549237,7.94764398 Z" id="Fill-11" fill="#FFFFFE"></path>
                <path d="M61.4726664,14.8945265 C60.9910178,14.5487888 60.6550863,14.0627899 60.4651163,13.4372492 L61.5235207,13.0181441 C61.6323195,13.4173489 61.8257124,13.7436658 62.1036994,13.9963756 C62.3819309,14.2493252 62.7178624,14.3756801 63.111494,14.3756801 C63.4777425,14.3756801 63.7884914,14.2826522 64.0427628,14.0961169 C64.2972786,13.9100611 64.4246587,13.6537548 64.4246587,13.3274379 C64.4246587,13.0279744 64.3126815,12.7802996 64.0887272,12.583934 C63.8647728,12.3875684 63.4777425,12.1962378 62.9281253,12.0099422 L62.4701924,11.8502603 C61.9748523,11.6771517 61.5626393,11.4359505 61.2335536,11.1264169 C60.9044678,10.8171232 60.7399249,10.4064098 60.7399249,9.89403702 C60.7399249,9.54134619 60.8367436,9.21526901 61.0301365,8.91580549 C61.2235294,8.61634196 61.4946707,8.379936 61.8442937,8.20706715 C62.1939168,8.03395853 62.5890153,7.94764398 63.0300783,7.94764398 C63.6611113,7.94764398 64.16672,8.09869444 64.5469046,8.40151464 C64.9266001,8.70457461 65.1845388,9.04551707 65.3204762,9.42482155 L64.3126815,9.84392663 C64.2447129,9.60440376 64.1021742,9.3982079 63.8850656,9.22509928 C63.667957,9.05223042 63.3863026,8.96567611 63.0401025,8.96567611 C62.7078383,8.96567611 62.4261839,9.05223042 62.1953838,9.22509928 C61.9648281,9.3982079 61.8494281,9.61783047 61.8494281,9.88396699 C61.8494281,10.1302032 61.952848,10.3349605 62.1599325,10.4977593 C62.3667724,10.6607979 62.687301,10.8156846 63.1215182,10.9619398 L63.5897197,11.1216217 C64.2141514,11.3347707 64.6958,11.6107375 65.0353989,11.9500016 C65.3745088,12.2895055 65.544186,12.7421773 65.544186,13.3075376 C65.544186,13.7733964 65.4236517,14.1644493 65.1828274,14.4804564 C64.9420031,14.7964636 64.6332101,15.0311912 64.256693,15.1841597 C63.8799313,15.3371283 63.4948569,15.4136126 63.1012254,15.4136126 C62.497331,15.4136126 61.9545595,15.2407437 61.4726664,14.8945265" id="Fill-12" fill="#FFFFFE"></path>
                <polyline id="Fill-13" fill="#FFFFFE" points="68.2676829 8.9969811 66.2697674 8.9969811 66.2697674 7.94764398 71.3488372 7.94764398 71.3488372 8.9969811 69.3609495 8.9969811 69.3609495 15.1727749 68.2676829 15.1727749 68.2676829 8.9969811"></polyline>
                <polyline id="Fill-14" fill="#FFFFFE" points="74.9767442 7.94764398 76.2614144 7.94764398 79.4625289 13.2554137 79.5218615 13.2554137 79.4625289 11.8628422 79.4625289 7.94764398 80.5395349 7.94764398 80.5395349 15.1727749 79.4131641 15.1727749 76.0539875 9.59230842 75.9946549 9.59230842 76.0539875 10.9848799 76.0539875 15.1727749 74.9767442 15.1727749 74.9767442 7.94764398"></polyline>
                <polyline id="Fill-15" fill="#FFFFFE" points="82.4744186 7.94764398 86.827907 7.94764398 86.827907 8.9969811 83.5777296 8.9969811 83.5777296 11.0355409 86.5067203 11.0355409 86.5067203 12.084878 83.5777296 12.084878 83.5777296 14.1231953 86.827907 14.1231953 86.827907 15.1727749 82.4744186 15.1727749 82.4744186 7.94764398"></polyline>
                <path d="M90.5795219,14.1231953 C91.4077141,14.1231953 92.0505594,13.8963116 92.5085469,13.4423018 C92.966779,12.988292 93.1956505,12.3609683 93.1956505,11.5600882 C93.1956505,10.7596929 92.966779,10.1321268 92.5085469,9.678117 C92.0505594,9.2238648 91.4077141,8.9969811 90.5795219,8.9969811 L89.3987307,8.9969811 L89.3987307,14.1231953 L90.5795219,14.1231953 Z M88.2790698,7.94764398 L90.610087,7.94764398 C91.3634558,7.94764398 92.0199943,8.09889978 92.579947,8.40165378 C93.1398998,8.70440778 93.570501,9.13005712 93.8727288,9.678117 C94.174712,10.2266617 94.3255814,10.853743 94.3255814,11.5600882 C94.3255814,12.2664334 94.174712,12.8939996 93.8727288,13.4423018 C93.570501,13.9906041 93.1398998,14.4160111 92.579947,14.7187651 C92.0199943,15.0215191 91.3634558,15.1727749 90.610087,15.1727749 L88.2790698,15.1727749 L88.2790698,7.94764398 L88.2790698,7.94764398 Z" id="Fill-16" fill="#FFFFFE"></path>
                <path d="M100.462863,11.3179335 C100.832238,11.3179335 101.12948,11.2018253 101.354591,10.9696088 C101.579701,10.7376348 101.692256,10.4668772 101.692256,10.1575785 C101.692256,9.84803738 101.579701,9.5772798 101.354591,9.34506336 C101.12948,9.11308932 100.832238,8.9969811 100.462863,8.9969811 L99.0620962,8.9969811 L99.0620962,11.3179335 L100.462863,11.3179335 Z M97.9534884,7.94764398 L100.432607,7.94764398 C100.862495,7.94764398 101.257043,8.04169406 101.616493,8.23003662 C101.975944,8.41837918 102.261325,8.68089526 102.473123,9.01734246 C102.684678,9.35354726 102.790698,9.73362594 102.790698,10.1575785 C102.790698,10.5812887 102.684678,10.9613673 102.473123,11.2978145 C102.261325,11.6342617 101.975944,11.8967778 101.616493,12.084878 C101.257043,12.2732205 100.862495,12.367513 100.432607,12.367513 L99.0620962,12.367513 L99.0620962,15.1727749 L97.9534884,15.1727749 L97.9534884,7.94764398 L97.9534884,7.94764398 Z" id="Fill-17" fill="#FFFFFE"></path>
                <path d="M105.876238,7.36265955 C105.794782,7.44577383 105.754176,7.543457 105.754176,7.65618671 C105.754176,7.76867759 105.794782,7.86636076 105.876238,7.94923621 C105.957694,8.03235049 106.056273,8.0736688 106.17173,8.0736688 C106.287187,8.0736688 106.387233,8.03235049 106.472114,7.94923621 C106.556749,7.86636076 106.599312,7.76867759 106.599312,7.65618671 C106.599312,7.543457 106.556749,7.44577383 106.472114,7.36265955 C106.387233,7.28002294 106.287187,7.2384658 106.17173,7.2384658 C106.056273,7.2384658 105.957694,7.28002294 105.876238,7.36265955 Z M107.29181,12.3292156 L106.48728,10.1517647 L106.202306,9.33638491 L106.141153,9.33638491 L105.866209,10.1517647 L105.061679,12.3292156 L107.29181,12.3292156 Z M109.562791,15.1727749 L108.340707,15.1727749 L107.658484,13.3433053 L104.695005,13.3433053 L104.023055,15.1727749 L102.790698,15.1727749 L105.3672,8.50118191 C105.244893,8.39513955 105.151452,8.26927396 105.087363,8.1233463 C105.022541,7.97741864 104.990497,7.82169877 104.990497,7.65618671 C104.990497,7.33113344 105.103997,7.05790718 105.331731,6.83579143 C105.558976,6.61367568 105.839057,6.5026178 106.17173,6.5026178 C106.497553,6.5026178 106.777634,6.61534752 107.011973,6.84080695 C107.246067,7.06602754 107.362992,7.3378208 107.362992,7.65618671 C107.362992,7.98744967 107.237506,8.26927396 106.986289,8.50118191 L109.562791,15.1727749 L109.562791,15.1727749 Z" id="Fill-18" fill="#FFFFFE"></path>
            </g>
        </g>
    </g>
</svg>